<svg xmlns="http://www.w3.org/2000/svg" viewBox="0 0 128 128" role="img" aria-labelledby="title desc" shape-rendering="crispEdges">
  <title id="title">Default Pixel Buddy</title>
  <desc id="desc">Round mint pixel Buddy with heart antler ears, navy outline, face panel, tiny limbs, top tuft, and gold heart charm.</desc>
  <style>
    svg{background:transparent;image-rendering:pixelated}
    .o{fill:#08165c}.s{fill:#2fb8cf}.b{fill:#8ee9df}.f{fill:#cffff2}.hi{fill:#effff9}.g{fill:#ffd45e}.gs{fill:#f69c45}.w{fill:#f8fbff}
  </style>

  <path class="o" d="M31 13h9v5h6v8h-5v6h-10v-5h-6v-9h6zM88 13h9v5h6v9h-6v5H87v-6h-5v-8h6z"/>
  <path class="b" d="M32 17h7v5h5v4h-6v4h-6v-5h-5v-5h5zM89 17h7v5h5v5h-5v4h-7v-5h-5v-4h5z"/>
  <rect class="hi" x="34" y="18" width="8" height="4"/>
  <rect class="hi" x="91" y="18" width="8" height="4"/>

  <path class="o" d="M59 18h8v7h5v6h-7v5h-8v-6h-5v-6h7z"/>
  <path class="b" d="M61 20h4v7h4v2h-6v5h-4v-6h-4v-2h6z"/>
  <rect class="hi" x="63" y="20" width="4" height="4"/>

  <rect class="o" x="45" y="24" width="38" height="6"/>
  <rect class="o" x="35" y="30" width="58" height="8"/>
  <rect class="o" x="27" y="38" width="74" height="10"/>
  <rect class="o" x="22" y="48" width="84" height="14"/>
  <rect class="o" x="19" y="62" width="90" height="16"/>
  <rect class="o" x="22" y="78" width="84" height="12"/>
  <rect class="o" x="28" y="90" width="72" height="10"/>
  <rect class="o" x="39" y="100" width="50" height="8"/>

  <rect class="b" x="45" y="30" width="38" height="6"/>
  <rect class="b" x="37" y="36" width="54" height="8"/>
  <rect class="b" x="30" y="44" width="68" height="12"/>
  <rect class="b" x="25" y="56" width="78" height="16"/>
  <rect class="b" x="24" y="72" width="80" height="12"/>
  <rect class="b" x="30" y="84" width="68" height="10"/>
  <rect class="b" x="41" y="94" width="46" height="8"/>
  <rect class="s" x="25" y="72" width="12" height="12"/>
  <rect class="s" x="31" y="84" width="16" height="8"/>
  <rect class="s" x="47" y="94" width="40" height="4"/>

  <rect class="hi" x="37" y="42" width="18" height="5"/>
  <rect class="hi" x="33" y="49" width="8" height="4"/>
  <rect class="hi" x="88" y="37" width="8" height="5"/>
  <rect class="s" x="75" y="31" width="12" height="5"/>
  <rect class="s" x="84" y="44" width="10" height="5"/>

  <rect class="o" x="14" y="61" width="12" height="19"/>
  <rect class="b" x="17" y="64" width="9" height="12"/>
  <rect class="hi" x="18" y="64" width="6" height="4"/>
  <rect class="o" x="102" y="61" width="12" height="19"/>
  <rect class="b" x="102" y="64" width="9" height="12"/>
  <rect class="hi" x="104" y="64" width="6" height="4"/>

  <rect class="o" x="35" y="100" width="18" height="12"/>
  <rect class="b" x="38" y="101" width="13" height="8"/>
  <rect class="hi" x="39" y="101" width="8" height="3"/>
  <rect class="o" x="75" y="100" width="18" height="12"/>
  <rect class="b" x="77" y="101" width="13" height="8"/>
  <rect class="hi" x="79" y="101" width="8" height="3"/>

  <rect class="s" x="37" y="45" width="54" height="38"/>
  <rect class="f" x="40" y="48" width="48" height="32"/>
  <rect class="f" x="34" y="56" width="6" height="18"/>
  <rect class="f" x="88" y="56" width="6" height="18"/>
  <rect class="s" x="40" y="80" width="48" height="4"/>

  <rect class="o" x="50" y="59" width="8" height="12"/>
  <rect class="w" x="53" y="60" width="3" height="3"/>
  <rect class="o" x="70" y="59" width="8" height="12"/>
  <rect class="w" x="73" y="60" width="3" height="3"/>
  <rect class="o" x="61" y="72" width="4" height="3"/>
  <rect class="o" x="65" y="75" width="9" height="3"/>
  <rect class="f" x="61" y="74" width="4" height="2"/>
  <rect class="s" x="43" y="70" width="4" height="10"/>
  <rect class="s" x="40" y="73" width="10" height="4"/>
  <rect class="s" x="81" y="70" width="4" height="10"/>
  <rect class="s" x="78" y="73" width="10" height="4"/>

  <path class="o" d="M63 88h4v3h5v5h-3v4h-4v4h-4v-4h-4v-4h-3v-5h5v-3z"/>
  <path class="g" d="M63 91h3v3h4v2h-3v3h-3v3h-2v-3h-3v-3h-3v-2h4v-3z"/>
  <rect class="w" x="60" y="92" width="3" height="3"/>
  <rect class="gs" x="66" y="97" width="3" height="3"/>
</svg>
